<svg width="53" height="53" viewBox="0 0 53 53" fill="none" xmlns="http://www.w3.org/2000/svg">
<path d="M25.7928 0.628213C25.8923 -0.209404 27.1077 -0.209404 27.2072 0.628213L28.041 7.65506C29.1176 16.7286 36.2714 23.8824 45.3449 24.959L52.3717 25.7928C53.2094 25.8923 53.2094 27.1077 52.3717 27.2072L45.3449 28.041C36.2714 29.1176 29.1176 36.2714 28.041 45.3449L27.2072 52.3717C27.1077 53.2094 25.8923 53.2094 25.7928 52.3717L24.959 45.3449C23.8824 36.2714 16.7286 29.1176 7.65506 28.041L0.628213 27.2072C-0.209404 27.1077 -0.209404 25.8923 0.628213 25.7928L7.65506 24.959C16.7286 23.8824 23.8824 16.7286 24.959 7.65506L25.7928 0.628213Z" fill="white"/>
</svg>
